<svg width="180" height="128" viewBox="0 0 180 128" fill="none" xmlns="http://www.w3.org/2000/svg">
<rect width="180" height="128" rx="2" fill="#F3F3F3"/>
<g clip-path="url(#clip0_32_252)">
<mask id="mask0_32_252" style="mask-type:luminance" maskUnits="userSpaceOnUse" x="-5" y="7" width="174" height="124">
<path d="M-4.51196 7.82687H168.689V130.525H-4.51196V7.82687Z" fill="white"/>
</mask>
<g mask="url(#mask0_32_252)">
<path d="M104.823 57.2873C103.982 57.2873 103.279 57.674 102.708 58.4452C102.14 59.2171 101.854 60.3005 101.854 61.6946C101.854 63.0918 102.125 64.1614 102.669 64.9067C103.212 65.6544 103.925 66.0267 104.81 66.0267C105.694 66.0267 106.412 65.6497 106.964 64.8932C107.516 64.1395 107.792 63.0605 107.792 61.6559C107.792 60.2525 107.507 59.1721 106.938 58.4177C106.369 57.6642 105.664 57.2873 104.823 57.2873ZM104.81 71.157C102.35 71.157 100.343 70.3503 98.7927 68.7373C97.2442 67.1229 96.4695 64.7671 96.4695 61.6701C96.4695 58.5714 97.253 56.2251 98.82 54.6275C100.387 53.0319 102.411 52.2334 104.889 52.2334C107.367 52.2334 109.369 53.0175 110.891 54.5902C112.416 56.1598 113.178 58.5394 113.178 61.7219C113.178 64.9067 112.399 67.2756 110.839 68.8301C109.28 70.3814 107.271 71.157 104.81 71.157Z" fill="#414042"/>
<path d="M120.541 57.4696V65.342C120.541 65.7097 120.568 65.9414 120.62 66.0386C120.673 66.1354 120.831 66.1839 121.093 66.1839C122.057 66.1839 122.787 65.823 123.287 65.1035C123.787 64.3848 124.035 63.1881 124.035 61.5121C124.035 59.8354 123.776 58.743 123.261 58.2355C122.744 57.7265 121.924 57.4696 120.804 57.4696H120.541ZM115.497 69.6839V53.8927C115.497 53.4537 115.606 53.1073 115.826 52.8504C116.045 52.5974 116.329 52.4689 116.68 52.4689H121.067C123.852 52.4689 125.966 53.1725 127.41 54.5765C128.856 55.9799 129.579 58.1898 129.579 61.2084C129.579 67.6661 126.828 70.8943 121.329 70.8943H116.837C115.945 70.8943 115.497 70.4917 115.497 69.6839Z" fill="#414042"/>
<path d="M139.665 57.2873C138.825 57.2873 138.119 57.674 137.549 58.4452C136.981 59.2171 136.697 60.3005 136.697 61.6946C136.697 63.0918 136.969 64.1614 137.511 64.9067C138.053 65.6544 138.767 66.0267 139.652 66.0267C140.536 66.0267 141.255 65.6497 141.806 64.8932C142.358 64.1395 142.634 63.0605 142.634 61.6559C142.634 60.2525 142.349 59.1721 141.78 58.4177C141.211 57.6642 140.507 57.2873 139.665 57.2873ZM139.652 71.157C137.191 71.157 135.186 70.3503 133.636 68.7373C132.086 67.1229 131.311 64.7671 131.311 61.6701C131.311 58.5714 132.095 56.2251 133.661 54.6275C135.23 53.0319 137.252 52.2334 139.731 52.2334C142.21 52.2334 144.21 53.0175 145.734 54.5902C147.258 56.1598 148.02 58.5394 148.02 61.7219C148.02 64.9067 147.24 67.2756 145.681 68.8301C144.122 70.3814 142.112 71.157 139.652 71.157Z" fill="#414042"/>
<path d="M157.811 70.4748C157.811 70.8235 156.945 71.0005 155.21 71.0005C153.477 71.0005 152.609 70.8235 152.609 70.4748V57.2606H149.457C149.159 57.2606 148.948 56.858 148.826 56.0488C148.774 55.6637 148.749 55.2695 148.749 54.8652C148.749 54.4633 148.774 54.0674 148.826 53.6816C148.948 52.8745 149.159 52.4688 149.457 52.4688H160.885C161.182 52.4688 161.392 52.8745 161.516 53.6816C161.567 54.0674 161.594 54.4633 161.594 54.8652C161.594 55.2695 161.567 55.6637 161.516 56.0488C161.392 56.858 161.182 57.2606 160.885 57.2606H157.811V70.4748Z" fill="#414042"/>
<path d="M91.8239 61.1216C90.4096 61.0997 88.791 61.3951 88.791 61.3951V64.1607H90.4187L90.4005 65.3935C90.4005 65.8502 89.9486 66.0796 89.0474 66.0796C88.1451 66.0796 87.3481 65.6968 86.6568 64.9333C85.9638 64.1689 85.6192 63.0515 85.6192 61.579C85.6192 60.1035 85.9559 59.0157 86.6302 58.3138C87.3032 57.6125 88.1853 57.2607 89.2703 57.2607C89.7262 57.2607 90.1981 57.3344 90.6888 57.4847C91.1798 57.6337 91.5077 57.7734 91.675 57.9041C91.8409 58.0387 91.9986 58.1023 92.1478 58.1023C92.2963 58.1023 92.5366 57.9284 92.8691 57.5766C93.2021 57.2257 93.5004 56.694 93.7636 55.985C94.0256 55.2723 94.1568 54.7261 94.1568 54.3386C94.1568 53.9542 94.1485 53.6891 94.1315 53.5492C93.7636 53.1459 93.0846 52.8261 92.0943 52.5883C91.1058 52.3512 89.9975 52.2334 88.7715 52.2334C86.0736 52.2334 83.9641 53.0844 82.4406 54.7862C80.916 56.4888 80.1552 58.6989 80.1552 61.4193C80.1552 64.6134 80.934 67.0347 82.4916 68.6842C84.052 70.3333 86.1006 71.157 88.6405 71.157C90.0063 71.157 91.2187 71.0393 92.2779 70.8022C93.3382 70.566 94.0431 70.3235 94.3937 70.0783L94.4989 61.8417C94.4989 61.3631 93.2382 61.1458 91.8239 61.1216Z" fill="#414042"/>
<path d="M86.286 81.9318C86.1408 82.2302 85.8739 82.5039 85.4834 82.7515C85.0935 83.0007 84.5981 83.1245 83.9963 83.1245C83.2024 83.1245 82.5639 82.8739 82.0789 82.3671C81.5959 81.8642 81.3539 81.1394 81.3539 80.1936V77.8352C81.3539 76.9099 81.5819 76.2003 82.0394 75.7049C82.4959 75.2134 83.1074 74.9642 83.8711 74.9642C84.6176 74.9642 85.1963 75.161 85.6058 75.5501C86.0142 75.9406 86.2288 76.4861 86.2474 77.1827L86.2371 77.2137H85.6277C85.6058 76.6798 85.4511 76.2679 85.16 75.9769C84.8705 75.6883 84.4398 75.5424 83.8711 75.5424C83.2957 75.5424 82.8398 75.7375 82.5062 76.1289C82.1734 76.5194 82.0075 77.0855 82.0075 77.8292V80.201C82.0075 80.9722 82.1869 81.5602 82.5453 81.9651C82.9036 82.3671 83.3867 82.5685 83.9963 82.5685C84.4415 82.5685 84.7993 82.4895 85.0672 82.3277C85.3359 82.1682 85.5223 81.9735 85.6277 81.7425V79.6767H83.9849V79.1025H86.286V81.9318Z" fill="#6D6E71"/>
<path d="M89.3036 82.5349C89.665 82.5349 89.9868 82.4323 90.2679 82.2235C90.5495 82.0136 90.7468 81.7486 90.8638 81.4257V80.1509H89.8186C89.3741 80.1509 89.0181 80.277 88.7517 80.5293C88.4846 80.7799 88.3524 81.093 88.3524 81.4653C88.3524 81.7798 88.435 82.0381 88.6023 82.2372C88.7694 82.437 89.003 82.5349 89.3036 82.5349ZM90.9613 83.0105C90.9287 82.8063 90.9034 82.6405 90.8873 82.5107C90.8717 82.3785 90.8638 82.247 90.8638 82.1134C90.6853 82.4058 90.455 82.6482 90.1704 82.8382C89.8863 83.0296 89.5703 83.1245 89.2222 83.1245C88.7354 83.1245 88.361 82.9734 88.096 82.6708C87.8326 82.3671 87.6995 81.9577 87.6995 81.4408C87.6995 80.8946 87.891 80.4563 88.2749 80.1311C88.6586 79.8059 89.1801 79.6434 89.836 79.6434H90.8638V78.9193C90.8638 78.5029 90.7577 78.1749 90.5495 77.9378C90.3368 77.7037 90.0445 77.5853 89.6673 77.5853C89.3164 77.5853 89.027 77.697 88.7999 77.9233C88.5734 78.1483 88.4611 78.4232 88.4611 78.7507L87.8507 78.7454L87.84 78.7134C87.8228 78.2691 87.9906 77.8762 88.3445 77.5282C88.697 77.181 89.1494 77.0085 89.6999 77.0085C90.2439 77.0085 90.6819 77.1743 91.0162 77.5046C91.3488 77.8382 91.5156 78.3138 91.5156 78.9323V81.8222C91.5156 82.0328 91.5254 82.2372 91.5437 82.4323C91.5626 82.63 91.5931 82.8205 91.6408 83.0105H90.9613Z" fill="#6D6E71"/>
<path d="M93.5653 77.1181L93.6212 78.0327C93.7757 77.7054 93.9828 77.4531 94.2394 77.2738C94.497 77.0969 94.8002 77.0085 95.1483 77.0085C95.5036 77.0085 95.8031 77.112 96.0446 77.3216C96.2864 77.5305 96.4647 77.8466 96.578 78.2714C96.7229 77.8793 96.9282 77.5694 97.1946 77.3452C97.461 77.1204 97.7842 77.0085 98.1586 77.0085C98.6745 77.0085 99.0747 77.2176 99.3584 77.6361C99.6432 78.0555 99.7852 78.699 99.7852 79.5683V83.0105H99.1283V79.5569C99.1283 78.8342 99.0284 78.3252 98.8344 78.0327C98.6391 77.7396 98.3592 77.592 97.9972 77.592C97.6162 77.592 97.3189 77.7531 97.105 78.0807C96.8923 78.4082 96.7611 78.8176 96.7134 79.3121V79.4648V83.0105H96.0598V79.5606C96.0598 78.8549 95.9611 78.3497 95.7591 78.0481C95.5581 77.7464 95.2784 77.5967 94.9194 77.5967C94.5761 77.5967 94.2985 77.7016 94.0905 77.9096C93.8811 78.1187 93.7322 78.405 93.6419 78.7682V83.0105H92.989V77.1181H93.5653Z" fill="#6D6E71"/>
<path d="M103.048 77.5853C102.639 77.5853 102.303 77.7723 102.039 78.1453C101.776 78.5197 101.64 78.9811 101.629 79.531H104.342V79.2788C104.342 78.7925 104.228 78.3875 104 78.0663C103.771 77.7448 103.454 77.5853 103.048 77.5853ZM103.14 83.1245C102.506 83.1245 101.988 82.8853 101.585 82.4081C101.183 81.9318 100.982 81.3224 100.982 80.5801V79.6017C100.982 78.858 101.184 78.2378 101.587 77.7448C101.992 77.254 102.478 77.0085 103.048 77.0085C103.664 77.0085 104.141 77.2274 104.482 77.6667C104.824 78.1066 104.994 78.6976 104.994 79.4392V80.0856H101.629V80.5757C101.629 81.1462 101.765 81.621 102.036 82.0001C102.308 82.3801 102.677 82.5685 103.14 82.5685C103.462 82.5685 103.742 82.5116 103.975 82.3997C104.209 82.2852 104.409 82.1248 104.575 81.9143L104.842 82.3778C104.665 82.6035 104.435 82.7858 104.154 82.921C103.874 83.0555 103.535 83.1245 103.14 83.1245Z" fill="#6D6E71"/>
<path d="M110.301 77.5853C109.891 77.5853 109.554 77.7723 109.291 78.1453C109.029 78.5197 108.893 78.9811 108.881 79.531H111.595V79.2788C111.595 78.7925 111.481 78.3875 111.252 78.0663C111.024 77.7448 110.707 77.5853 110.301 77.5853ZM110.393 83.1245C109.759 83.1245 109.241 82.8853 108.839 82.4081C108.436 81.9318 108.234 81.3224 108.234 80.5801V79.6017C108.234 78.858 108.437 78.2378 108.839 77.7448C109.245 77.254 109.732 77.0085 110.301 77.0085C110.916 77.0085 111.396 77.2274 111.736 77.6667C112.076 78.1066 112.247 78.6976 112.247 79.4392V80.0856H108.881V80.5757C108.881 81.1462 109.018 81.621 109.291 82.0001C109.561 82.3801 109.929 82.5685 110.393 82.5685C110.716 82.5685 110.995 82.5116 111.227 82.3997C111.462 82.2852 111.661 82.1248 111.83 81.9143L112.095 82.3778C111.917 82.6035 111.688 82.7858 111.407 82.921C111.127 83.0555 110.788 83.1245 110.393 83.1245Z" fill="#6D6E71"/>
<path d="M113.971 77.1181L114.024 78.0921C114.181 77.7464 114.388 77.478 114.648 77.2913C114.906 77.1036 115.21 77.0085 115.559 77.0085C116.085 77.0085 116.487 77.2032 116.767 77.5944C117.049 77.9849 117.189 78.592 117.189 79.4156V83.0105H116.532V79.4217C116.532 78.7484 116.433 78.2782 116.238 78.0054C116.043 77.7326 115.757 77.5967 115.385 77.5967C115.051 77.5967 114.771 77.7054 114.546 77.9264C114.321 78.1453 114.153 78.4369 114.041 78.8046V83.0105H113.388V77.1181H113.971Z" fill="#6D6E71"/>
<path d="M119.104 80.5802C119.104 81.1782 119.217 81.6538 119.447 82.0077C119.673 82.3649 120.018 82.5411 120.479 82.5411C120.794 82.5411 121.06 82.4569 121.278 82.2844C121.496 82.1119 121.667 81.8718 121.794 81.5671V78.6483C121.672 78.3345 121.504 78.0808 121.292 77.8855C121.081 77.6934 120.813 77.5968 120.49 77.5968C120.031 77.5968 119.683 77.7973 119.452 78.2C119.22 78.6033 119.104 79.1292 119.104 79.775V80.5802ZM118.445 79.775C118.445 78.9399 118.613 78.2692 118.952 77.7638C119.287 77.2609 119.754 77.0086 120.349 77.0086C120.679 77.0086 120.968 77.0893 121.216 77.2511C121.464 77.4099 121.669 77.6423 121.834 77.9379L121.897 77.1182H122.451V83.016C122.451 83.7711 122.277 84.3563 121.926 84.7703C121.574 85.1827 121.075 85.3916 120.43 85.3916C120.198 85.3916 119.949 85.3552 119.682 85.2846C119.415 85.214 119.179 85.1212 118.972 85.0048L119.153 84.4306C119.329 84.5453 119.527 84.6342 119.746 84.6966C119.963 84.7612 120.187 84.7922 120.419 84.7922C120.887 84.7922 121.233 84.6418 121.457 84.3418C121.682 84.0378 121.794 83.5981 121.794 83.016V82.3033C121.627 82.5686 121.423 82.7721 121.18 82.9127C120.938 83.054 120.656 83.1246 120.337 83.1246C119.746 83.1246 119.283 82.8929 118.948 82.4294C118.613 81.9669 118.445 81.3498 118.445 80.5802V79.775Z" fill="#6D6E71"/>
<path d="M124.65 83.0107H123.991V77.1183H124.65V83.0107ZM124.65 75.4407H123.991V74.5124H124.65V75.4407Z" fill="#6D6E71"/>
<path d="M126.775 77.1181L126.828 78.0921C126.986 77.7464 127.192 77.478 127.452 77.2913C127.711 77.1036 128.015 77.0085 128.363 77.0085C128.888 77.0085 129.292 77.2032 129.573 77.5944C129.854 77.9849 129.993 78.592 129.993 79.4156V83.0105H129.336V79.4217C129.336 78.7484 129.237 78.2782 129.042 78.0054C128.846 77.7326 128.562 77.5967 128.189 77.5967C127.855 77.5967 127.576 77.7054 127.351 77.9264C127.126 78.1453 126.958 78.4369 126.846 78.8046V83.0105H126.192V77.1181H126.775Z" fill="#6D6E71"/>
<path d="M133.267 77.5853C132.856 77.5853 132.52 77.7723 132.258 78.1453C131.995 78.5197 131.858 78.9811 131.847 79.531H134.56V79.2788C134.56 78.7925 134.447 78.3875 134.218 78.0663C133.99 77.7448 133.673 77.5853 133.267 77.5853ZM133.36 83.1245C132.724 83.1245 132.206 82.8853 131.805 82.4081C131.403 81.9318 131.201 81.3224 131.201 80.5801V79.6017C131.201 78.858 131.403 78.2378 131.806 77.7448C132.211 77.254 132.698 77.0085 133.267 77.0085C133.882 77.0085 134.362 77.2274 134.703 77.6667C135.043 78.1066 135.214 78.6976 135.214 79.4392V80.0856H131.847V80.5757C131.847 81.1462 131.984 81.621 132.256 82.0001C132.527 82.3801 132.895 82.5685 133.36 82.5685C133.681 82.5685 133.96 82.5116 134.192 82.3997C134.428 82.2852 134.627 82.1248 134.795 81.9143L135.062 82.3778C134.883 82.6035 134.654 82.7858 134.373 82.921C134.093 83.0555 133.755 83.1245 133.36 83.1245Z" fill="#6D6E71"/>
<path d="M67.1088 72.9623C67.1088 72.9623 67.0332 72.4975 66.9889 72.5017L58.5697 73.3155C57.8998 73.3803 57.3795 73.9156 57.3325 74.5882L57.1012 77.9096L50.5877 78.3752L50.1447 75.365C50.046 74.6954 49.4624 74.1907 48.7869 74.1907H39.9009C39.2257 74.1907 38.6421 74.6954 38.5434 75.365L38.1002 78.3752L31.5867 77.9096L31.3554 74.5882C31.3084 73.9154 30.7881 73.3801 30.1182 73.3153L21.6948 72.5017C21.6512 72.4975 21.6194 72.9628 21.5759 72.9628L21.5645 74.7882L28.6983 75.9408L28.9319 79.2919C28.9791 79.9703 29.5255 80.5188 30.2031 80.5676L39.1736 81.2087C39.2075 81.211 39.241 81.2124 39.2745 81.2124C39.9486 81.2124 40.5313 80.7074 40.63 80.0379L41.0858 76.9405H47.6023L48.0582 80.0379C48.1566 80.7072 48.7399 81.2122 49.415 81.2122C49.448 81.2122 49.4811 81.211 49.5134 81.2087L58.485 80.5676C59.1624 80.5188 59.709 79.9703 59.7562 79.2919L59.9896 75.9408L67.1204 74.7831L67.1088 72.9623Z" fill="white"/>
<path d="M21.5757 59.198V70.2751V71.682V72.9624C21.6009 72.9626 21.626 72.9635 21.6509 72.9659L30.0734 73.7795C30.5145 73.8222 30.8603 74.1779 30.891 74.6209L31.1507 78.3458L38.4977 78.8711L39.0038 75.4331C39.0694 74.9874 39.451 74.657 39.9011 74.657H48.787C49.2368 74.657 49.6185 74.9874 49.6841 75.4331L50.1902 78.8711L57.5374 78.3458L57.7968 74.6209C57.8278 74.1779 58.1733 73.8224 58.6145 73.7795L67.0337 72.9659C67.0586 72.9635 67.0835 72.9626 67.1086 72.9624V71.8641L67.1121 71.8629V59.198C68.2981 57.7021 69.4212 56.0521 70.2816 54.6639C68.9667 52.4211 67.3555 50.4169 65.6334 48.56C64.0362 49.3655 62.4848 50.2779 61.0196 51.2489C60.2864 50.5188 59.4606 49.9215 58.6494 49.2972C57.8524 48.6558 56.9543 48.1856 56.1024 47.6377C56.356 45.7454 56.4814 43.8824 56.5319 41.9381C54.3339 40.8298 51.99 40.095 49.6191 39.5672C48.6726 41.1611 47.807 42.8872 47.053 44.5746C46.159 44.4249 45.2609 44.3694 44.3615 44.3587V44.3573C44.3552 44.3573 44.3494 44.3587 44.3441 44.3587C44.3385 44.3587 44.3326 44.3573 44.3271 44.3573V44.3587C43.4261 44.3694 42.5286 44.4249 41.6344 44.5746C40.8809 42.8872 40.0158 41.1611 39.0678 39.5672C36.6981 40.095 34.3539 40.8298 32.1562 41.9381C32.2064 43.8824 32.3319 45.7454 32.5862 47.6377C31.7327 48.1856 30.8357 48.6558 30.0385 49.2972C29.2285 49.9215 28.4012 50.5188 27.6678 51.2489C26.2026 50.2779 24.6517 49.3655 23.054 48.56C21.3319 50.4169 19.7217 52.4211 18.4062 54.6639C19.44 56.2896 20.5489 57.9237 21.5757 59.198Z" fill="#478CBF"/>
<path d="M59.5528 75.5147L59.2919 79.2594C59.2605 79.7108 58.9022 80.07 58.4517 80.1025L49.4803 80.7438C49.4584 80.7454 49.4365 80.7461 49.4149 80.7461C48.9691 80.7461 48.5844 80.4183 48.5186 79.9698L48.0041 76.4742H40.6839L40.1694 79.9698C40.1003 80.4403 39.6805 80.7785 39.2077 80.7438L30.2363 80.1025C29.7858 80.07 29.4275 79.7108 29.3961 79.2594L29.1352 75.5147L21.5618 74.7831C21.5653 75.5986 21.5758 76.4919 21.5758 76.6698C21.5758 84.6835 31.7223 88.5353 44.3285 88.5796H44.3439H44.3595C56.9657 88.5353 67.1087 84.6835 67.1087 76.6698C67.1087 76.4887 67.1196 75.599 67.1234 74.7831L59.5528 75.5147Z" fill="#478CBF"/>
<path d="M37.4802 64.7856C37.4802 67.5953 35.208 69.8713 32.4045 69.8713C29.6025 69.8713 27.3295 67.5953 27.3295 64.7856C27.3295 61.9777 29.6025 59.7028 32.4045 59.7028C35.208 59.7028 37.4802 61.9777 37.4802 64.7856Z" fill="white"/>
<path d="M36.2589 65.0871C36.2589 66.9507 34.7513 68.4612 32.8898 68.4612C31.0292 68.4612 29.5206 66.9507 29.5206 65.0871C29.5206 63.2234 31.0292 61.7115 32.8898 61.7115C34.7513 61.7115 36.2589 63.2234 36.2589 65.0871Z" fill="#414042"/>
<path d="M44.3436 70.334C43.4412 70.334 42.7098 69.6677 42.7098 68.8464V64.1649C42.7098 63.3442 43.4412 62.6772 44.3436 62.6772C45.2459 62.6772 45.9789 63.3442 45.9789 64.1649V68.8464C45.9789 69.6677 45.2459 70.334 44.3436 70.334Z" fill="white"/>
<path d="M51.2078 64.7856C51.2078 67.5953 53.48 69.8713 56.2839 69.8713C59.0857 69.8713 61.3584 67.5953 61.3584 64.7856C61.3584 61.9777 59.0857 59.7028 56.2839 59.7028C53.48 59.7028 51.2078 61.9777 51.2078 64.7856Z" fill="white"/>
<path d="M52.4294 65.0871C52.4294 66.9507 53.9365 68.4612 55.7966 68.4612C57.6586 68.4612 59.1658 66.9507 59.1658 65.0871C59.1658 63.2234 57.6586 61.7115 55.7966 61.7115C53.9365 61.7115 52.4294 63.2234 52.4294 65.0871Z" fill="#414042"/>
</g>
</g>
<defs>
<clipPath id="clip0_32_252">
<rect width="158" height="64" fill="white" transform="translate(11 32)"/>
</clipPath>
</defs>
</svg>
