<svg width="179" height="128" viewBox="0 0 179 128" fill="none" xmlns="http://www.w3.org/2000/svg">
<rect width="179" height="128" rx="2" fill="#F3F3F3"/>
<g clip-path="url(#clip0_34_369)">
<path d="M26.7406 42L22.0864 48.5167V52.2004L18.0365 54.1155L18 54.0985V78.1312L33.7901 85.5473L34.7549 86L35.7199 85.5473L51.5098 78.1312V54.0985L51.48 54.1124L47.4291 52.1967V48.5167L47.2873 48.3186L42.7746 42L38.1204 48.5167V48.5232L34.7337 43.7814L31.3734 48.4868L31.2532 48.3186L26.7406 42ZM27.564 45.7855L29.3641 48.3057H24.1171L25.8963 45.815L27.564 45.7855ZM43.5978 45.7855L45.3983 48.3057H40.1511L41.9299 45.815L43.5978 45.7855ZM35.557 47.5671L37.3572 50.0872H32.1106L33.8893 47.5964L35.557 47.5671ZM23.6195 49.5759H26.108V57.9064L23.6195 56.7376V49.5759ZM27.3857 49.5759H29.8619V59.6691L27.3857 58.5064V49.5759ZM39.6538 49.5759H42.1422V58.4977L39.6538 59.6664V49.5759ZM43.4196 49.5759H45.8956V56.7348L43.4196 57.8976V49.5759ZM31.6127 51.3573H34.1014V61.6602L31.6127 60.4913V51.3573ZM35.3791 51.3573H37.8549V60.5114L35.3791 61.6744V51.3573ZM153.674 52.2668L153.662 56.9045L151.16 56.8875V58.7772H153.669V68.7402C153.669 69.4658 153.726 70.1389 153.842 70.7591L153.843 70.7645L153.844 70.77C153.986 71.4037 154.225 71.9561 154.567 72.4171C154.911 72.8819 155.372 73.2392 155.929 73.4804C156.496 73.7488 157.187 73.8741 157.997 73.8741C158.367 73.8741 158.79 73.8143 159.274 73.6996C159.765 73.5829 160.247 73.4345 160.718 73.2554L161 73.1486L160.392 71.3364L160.073 71.4827C159.454 71.7494 158.847 71.949 158.198 71.9526C157.675 71.9526 157.264 71.878 156.963 71.7491C156.676 71.5946 156.454 71.4008 156.286 71.1603C156.11 70.8869 155.98 70.5725 155.899 70.2111C155.836 69.8114 155.803 69.366 155.803 68.8734V58.7771H160.452V56.8891H155.803V52.2668H153.674ZM47.4286 54.0951L49.6196 54.9857L47.4286 56.0147V54.0951ZM22.0864 54.0985V56.0178L19.8959 54.9888L22.0864 54.0985ZM124.758 56.4895C123.703 56.4895 122.68 56.7482 121.702 57.2572L121.701 57.2581L121.699 57.2588C120.91 57.68 120.251 58.1198 119.558 58.6395L119.545 56.8892H117.486V80.6916H119.586V72.1835C120.275 72.6501 120.954 73.0547 121.62 73.3488L121.623 73.3503L121.627 73.3519C122.462 73.6978 123.285 73.8744 124.089 73.8744C125.068 73.8744 126.006 73.6765 126.893 73.2821L126.895 73.2814L126.897 73.2805C127.806 72.8633 128.601 72.2698 129.275 71.5073C129.974 70.7208 130.517 69.7753 130.908 68.6786C131.301 67.5752 131.494 66.3309 131.494 64.9495C131.494 62.4229 130.949 60.3792 129.83 58.8483C128.702 57.283 126.971 56.4895 124.758 56.4895ZM73.9024 56.4898C72.8477 56.4898 71.8241 56.7482 70.8467 57.2572L70.8451 57.2581L70.8438 57.2588C70.054 57.68 69.395 58.12 68.7021 58.6398L68.6897 56.8892H66.6308V80.6918H68.7307V72.1838C69.4188 72.6505 70.0986 73.0549 70.7642 73.349L70.7676 73.3506L70.7711 73.3522C71.6063 73.6982 72.4291 73.8748 73.2334 73.8748C74.2124 73.8748 75.1508 73.6767 76.0376 73.2823L76.0392 73.2814L76.0411 73.2808C76.9502 72.8637 77.7457 72.2701 78.4198 71.5075C79.1178 70.7211 79.6613 69.7757 80.0519 68.679C80.4451 67.5755 80.6386 66.3311 80.6386 64.9499C80.6386 62.4233 80.0934 60.3796 78.9741 58.8486C77.846 57.2837 76.1158 56.4899 73.9024 56.4898ZM108.093 56.4898C106.927 56.4898 105.87 56.7834 104.95 57.3689C104.199 57.8288 103.471 58.4147 102.757 59.0791L102.772 56.8892H100.755V73.4755H102.855V61.4408C103.787 60.503 104.626 59.6148 105.351 59.162L105.353 59.1602L105.356 59.1585C106.087 58.6808 106.889 58.445 107.792 58.445C109.042 58.445 109.848 58.8118 110.342 59.5377L110.344 59.5416L110.347 59.5459C110.865 60.2582 111.158 61.4488 111.158 63.1206V73.4755H113.258V62.9209C113.258 60.7982 112.866 59.1879 112.021 58.1069C111.174 57.0241 109.829 56.4898 108.093 56.4898ZM90.8253 56.49C89.8872 56.49 88.9697 56.7011 88.0848 57.1172L88.0835 57.1179C87.218 57.5134 86.4362 58.095 85.7424 58.8537C85.0661 59.5955 84.5226 60.5067 84.1095 61.5789L84.1084 61.5817L84.1075 61.5844C83.7141 62.6658 83.5199 63.8776 83.5199 65.2155C83.5199 66.5535 83.7141 67.7654 84.1076 68.8468L84.1086 68.8505L84.1103 68.8542C84.524 69.9052 85.079 70.8156 85.7759 71.5777L85.7777 71.5792L85.7792 71.5811C86.4769 72.3209 87.2957 72.891 88.2269 73.2845L88.2282 73.2849L88.2296 73.2853C89.1823 73.6779 90.1955 73.8743 91.2601 73.8743C92.4701 73.8743 93.4811 73.7063 94.294 73.3505L94.2956 73.3495C95.0861 73.0127 95.8108 72.6525 96.4698 72.2686L96.7296 72.1174L95.8155 70.4011L95.5216 70.6174C94.9438 71.043 94.3739 71.3077 93.6877 71.5638C93.0362 71.7931 92.2328 71.9107 91.3938 71.9107C90.5197 71.9107 89.7434 71.8283 89.0532 71.5172C88.3561 71.1807 87.7582 70.7317 87.2516 70.1664C86.7664 69.5781 86.3838 68.8834 86.1054 68.0745C85.8584 67.3374 85.7283 66.5385 85.6829 65.6946H97.2613C97.2613 65.369 97.2928 65.0565 97.2939 64.7835V64.1849C97.2939 61.7869 96.7344 59.887 95.5808 58.5296C94.4295 57.175 92.8138 56.49 90.8253 56.49ZM141.72 56.49C140.72 56.49 139.761 56.6877 138.852 57.0813C137.943 57.4751 137.137 58.045 136.44 58.7835L136.439 58.7855L136.437 58.7873C135.759 59.5304 135.216 60.4533 134.803 61.5478L134.802 61.5493L134.802 61.5512C134.408 62.6331 134.215 63.8559 134.215 65.2155C134.215 66.5751 134.408 67.7981 134.802 68.8801L134.803 68.8838L134.805 68.8876C135.218 69.9373 135.761 70.8366 136.436 71.5774L136.438 71.5791L136.44 71.5811C137.137 72.3198 137.943 72.8893 138.852 73.2831C139.76 73.6769 140.72 73.8744 141.72 73.8744C142.721 73.8744 143.68 73.6767 144.589 73.2831C145.519 72.8897 146.327 72.3195 147.002 71.5793C147.701 70.8375 148.246 69.9357 148.637 68.8834C149.054 67.8004 149.26 66.576 149.26 65.2155C149.26 63.8556 149.054 62.6317 148.638 61.5492C148.247 60.4536 147.703 59.5289 147.002 58.7851C146.327 58.0452 145.519 57.4747 144.589 57.0813C143.68 56.6877 142.721 56.49 141.72 56.49ZM19.9297 57.1265L33.7901 63.6359V83.4252L19.9296 76.9159L19.9297 57.1265ZM49.58 57.1265V76.9159L35.7199 83.4252V63.6358L49.58 57.1265ZM90.8583 58.3783C92.2336 58.3783 93.2704 58.8422 94.0618 59.7946L94.0625 59.7959L94.0634 59.7974C94.7987 60.6632 95.1995 62.0245 95.2431 63.8725H85.7067C85.8064 63.0902 85.972 62.3718 86.2313 61.7454C86.553 61.0218 86.946 60.4115 87.4087 59.9091C87.8949 59.4055 88.4265 59.0338 89.0086 58.7857L89.0129 58.7837L89.0171 58.7817C89.6013 58.5121 90.211 58.3783 90.8583 58.3783ZM73.6683 58.4114C74.5417 58.4114 75.2661 58.5802 75.8579 58.9049L75.8617 58.9068L75.8655 58.9089C76.4648 59.2171 76.9437 59.6521 77.3174 60.2301L77.3191 60.2324L77.3205 60.2344C77.696 60.7946 77.9725 61.4762 78.1441 62.2869L78.1448 62.2909L78.1461 62.2948C78.3404 63.1107 78.4386 63.9954 78.4386 64.9496C78.4386 66.0083 78.2973 66.9731 78.0183 67.8479L78.0174 67.8502L78.0168 67.8526C77.7584 68.7089 77.3954 69.4384 76.9302 70.048C76.4658 70.6567 75.9128 71.1225 75.2634 71.4557C74.6162 71.7877 73.9228 71.9529 73.1665 71.9529C72.5945 71.9529 71.9169 71.8089 71.1397 71.5086C70.4121 71.2271 69.6033 70.5358 68.7311 69.848V61.0131C69.6561 60.2294 70.5189 59.4859 71.306 59.074L71.3073 59.0736L71.3086 59.0727C72.1427 58.6262 72.9266 58.4114 73.6683 58.4114ZM124.524 58.4114C125.397 58.4114 126.122 58.5802 126.714 58.9049L126.717 58.9068L126.721 58.9089C127.32 59.2171 127.799 59.6521 128.173 60.2301L128.175 60.2324L128.176 60.2344C128.552 60.7946 128.828 61.4762 129 62.2869L129 62.2909L129.002 62.2948C129.196 63.1107 129.294 63.9954 129.294 64.9496C129.294 66.0083 129.153 66.9731 128.874 67.8479L128.873 67.8502L128.872 67.8526C128.614 68.7089 128.251 69.4384 127.786 70.048C127.321 70.6567 126.768 71.1225 126.119 71.4557C125.472 71.7877 124.778 71.9529 124.022 71.9529C123.45 71.9529 122.772 71.8089 121.995 71.5086C121.267 71.2271 120.459 70.5358 119.586 69.848V61.0131C120.511 60.2294 121.374 59.4859 122.161 59.074L122.163 59.0733L122.164 59.0727C122.998 58.6262 123.782 58.4114 124.524 58.4114ZM141.72 58.4114C142.477 58.4114 143.17 58.577 143.817 58.9091L143.823 58.9117L143.828 58.9143C144.496 59.2257 145.056 59.6779 145.518 60.2835L145.521 60.2882L145.525 60.2927C146.011 60.8808 146.394 61.5879 146.674 62.4213C146.952 63.2495 147.093 64.1796 147.093 65.2156C147.093 66.2287 146.952 67.1476 146.674 67.9765C146.394 68.81 146.011 69.5168 145.525 70.1049L145.523 70.1076L145.521 70.1104C145.058 70.6954 144.496 71.1511 143.823 71.4859C143.175 71.7973 142.479 71.9528 141.72 71.9528C140.963 71.9528 140.267 71.7974 139.62 71.4868C138.969 71.1522 138.404 70.6949 137.918 70.1069C137.453 69.5187 137.08 68.8106 136.8 67.9765C136.522 67.1475 136.381 66.2287 136.381 65.2155C136.381 64.1796 136.523 63.2495 136.8 62.4213C137.08 61.5861 137.454 60.8773 137.919 60.2887L137.92 60.2874C138.406 59.6781 138.969 59.2236 139.616 58.9125L139.62 58.9105L139.623 58.909C140.27 58.5769 140.964 58.4114 141.72 58.4114Z" fill="black"/>
</g>
<defs>
<clipPath id="clip0_34_369">
<rect width="143" height="44" fill="white" transform="translate(18 42)"/>
</clipPath>
</defs>
</svg>
