<svg width="179" height="128" viewBox="0 0 179 128" fill="none" xmlns="http://www.w3.org/2000/svg">
<rect width="179" height="128" rx="2" fill="#F3F3F3"/>
<path d="M61.571 98.4744C61.302 98.4744 61.1674 98.2852 61.1674 97.9066C61.1674 97.5281 61.3638 97.1059 61.7564 96.64C62.4108 95.8539 63.3196 95.3989 64.4829 95.2752L65.0828 95.2424C66.4061 95.2424 67.3658 95.7702 67.962 96.8257C68.3183 97.4735 68.4964 98.2196 68.4964 99.064C68.4964 99.4134 68.4673 99.781 68.4092 100.167C68.1983 101.463 67.6966 102.562 66.9041 103.464C66.0316 104.462 65.0137 104.96 63.8504 104.96C62.6943 104.96 61.96 104.636 61.6473 103.988C61.5528 103.785 61.5055 103.57 61.5055 103.344C61.5055 103.111 61.5673 102.867 61.6909 102.613C61.9309 102.147 62.2581 101.914 62.6725 101.914C62.7089 101.914 62.7307 101.936 62.7379 101.979C62.7525 102.016 62.7488 102.056 62.727 102.099C62.7125 102.143 62.687 102.165 62.6507 102.165C62.4035 102.165 62.189 102.325 62.0072 102.645C61.8909 102.871 61.8327 103.079 61.8327 103.268C61.8327 103.457 61.8691 103.632 61.9418 103.792C62.1745 104.287 62.7307 104.534 63.6104 104.534C64.6065 104.534 65.5081 104.025 66.3152 103.006C67.0423 102.089 67.5112 101.011 67.7221 99.7738C67.7948 99.3734 67.8311 98.9949 67.8311 98.6382C67.8311 97.8448 67.653 97.1751 67.2967 96.6291C66.8241 95.8939 66.0825 95.5263 65.0719 95.5263C63.8067 95.5263 62.8579 95.9522 62.2253 96.8038C61.9054 97.2406 61.7455 97.6482 61.7455 98.0267C61.7455 98.1796 61.7782 98.256 61.8436 98.256C61.8 98.4016 61.7091 98.4744 61.571 98.4744ZM63.1415 102.613C63.1415 101.506 63.2396 100.433 63.4359 99.3916C63.6322 98.3434 63.8722 97.5172 64.1557 96.913C64.4466 96.3016 64.7265 95.9958 64.9955 95.9958C65.1119 95.9958 65.17 96.0541 65.17 96.1705C64.8428 96.8475 64.5556 97.7501 64.3084 98.8784C63.8504 100.938 63.6213 102.427 63.6213 103.344C63.6213 103.439 63.5704 103.486 63.4687 103.486C63.2505 103.486 63.1415 103.195 63.1415 102.613Z" fill="black"/>
<path d="M72.7336 100.56C72.4573 100.56 72.3192 100.258 72.3192 99.6538C72.3192 99.3117 72.3846 98.9914 72.5155 98.693C72.0211 99.1224 71.4685 99.9232 70.8577 101.095C70.247 102.26 69.9416 103.02 69.9416 103.377C69.9416 103.465 69.8834 103.508 69.7671 103.508C69.5563 103.508 69.4508 103.221 69.4508 102.646C69.4508 101.561 69.5599 100.578 69.778 99.6975C69.9961 98.8167 70.2615 98.3763 70.5742 98.3763C70.7123 98.3763 70.7814 98.4564 70.7814 98.6165C70.4469 99.6793 70.207 100.768 70.0616 101.881H70.1379C70.7269 100.52 71.3776 99.4573 72.0901 98.693C72.4973 98.2562 72.8681 98.0378 73.2026 98.0378C73.2753 98.0378 73.3334 98.0597 73.3771 98.1034C73.428 98.147 73.4534 98.2016 73.4534 98.2671C73.4025 98.3181 73.3407 98.3945 73.268 98.4964C73.1953 98.5983 73.0971 98.8422 72.9735 99.228C72.8499 99.6065 72.7881 100.021 72.7881 100.473C72.7881 100.531 72.77 100.56 72.7336 100.56Z" fill="black"/>
<path d="M74.3619 103.694C73.7657 103.694 73.4676 103.224 73.4676 102.285C73.4676 101.725 73.6057 101.11 73.882 100.44C74.2674 99.5009 74.7727 98.8603 75.398 98.5182C75.667 98.3726 75.9179 98.2998 76.1505 98.2998C76.3832 98.2998 76.565 98.3508 76.6958 98.4527C76.834 98.5546 76.9212 98.6565 76.9576 98.7584L77.023 98.9003C77.0012 99.0241 76.9394 99.086 76.8376 99.086C76.7213 99.086 76.6522 99.0605 76.6304 99.0095C76.6158 98.9513 76.5977 98.904 76.5759 98.8676C76.554 98.8239 76.5031 98.7693 76.4232 98.7038C76.3432 98.631 76.2523 98.5946 76.1505 98.5946C75.6779 98.5946 75.2489 99.0204 74.8636 99.8721C74.4273 100.855 74.2092 101.779 74.2092 102.646C74.2092 103.082 74.2965 103.301 74.471 103.301C74.6091 103.301 74.8018 103.148 75.049 102.842C75.3035 102.529 75.5689 102.14 75.8451 101.674C76.325 100.873 76.714 100.178 77.0121 99.5882C77.2593 99.0641 77.5138 98.8021 77.7755 98.8021C77.9137 98.8021 77.9828 98.8858 77.9828 99.0532C77.9173 99.1915 77.8337 99.388 77.7319 99.6428C77.6301 99.8976 77.4956 100.404 77.3284 101.161C77.1612 101.918 77.0775 102.671 77.0775 103.421C77.0775 104.171 77.1902 104.545 77.4156 104.545C77.5029 104.545 77.5829 104.505 77.6556 104.425C77.7283 104.352 77.7937 104.24 77.8519 104.087C77.8737 104.007 77.9246 103.967 78.0046 103.967C78.0337 103.967 78.0555 103.978 78.07 103.999C78.0845 104.021 78.0845 104.058 78.07 104.109C78.0555 104.16 78.03 104.229 77.9937 104.316C77.9573 104.411 77.8773 104.534 77.7537 104.687C77.6374 104.84 77.5138 104.917 77.3829 104.917C77.0775 104.917 76.8412 104.716 76.674 104.316C76.5141 103.916 76.4341 103.443 76.4341 102.897C76.4341 102.351 76.4741 101.827 76.554 101.324H76.445C75.5216 102.904 74.8272 103.694 74.3619 103.694Z" fill="black"/>
<path d="M84.5757 98.7475C84.7866 98.9076 84.9865 98.9877 85.1756 98.9877C85.3719 98.9877 85.51 98.9622 85.59 98.9112C85.59 99.0059 85.5464 99.0969 85.4591 99.1842C85.3791 99.2643 85.2592 99.3043 85.0992 99.3043C84.9465 99.3043 84.7793 99.2679 84.5975 99.1951C84.583 99.8794 84.4703 100.582 84.2594 101.302C84.0486 102.016 83.7759 102.616 83.4415 103.104C83.107 103.585 82.7762 103.825 82.449 103.825C82.1218 103.825 81.871 103.697 81.6965 103.443C81.5147 103.159 81.4238 102.755 81.4238 102.231C81.4238 101.932 81.442 101.612 81.4784 101.27C80.5768 102.886 79.8824 103.694 79.3953 103.694C78.9154 103.694 78.6755 103.286 78.6755 102.471C78.6755 101.626 78.8827 100.724 79.2971 99.7629C79.6461 98.9986 79.966 98.5982 80.2569 98.5618C80.395 98.5618 80.4641 98.6383 80.4641 98.7911C80.3768 99.0022 80.2678 99.2752 80.1369 99.6101C80.006 99.9376 79.8315 100.465 79.6134 101.193C79.4026 101.921 79.2971 102.46 79.2971 102.809C79.2971 103.151 79.3735 103.322 79.5262 103.322C79.7152 103.322 80.0097 103.017 80.4096 102.405C80.8167 101.794 81.173 101.182 81.4784 100.571L81.9473 99.6647C82.1509 99.257 82.3327 99.0532 82.4926 99.0532C82.6526 99.0532 82.7326 99.1296 82.7326 99.2825C82.2891 100.804 82.0673 101.994 82.0673 102.853C82.0673 103.253 82.1836 103.453 82.4163 103.453C82.678 103.453 82.9507 103.239 83.2343 102.809C83.5251 102.373 83.765 101.808 83.9541 101.117C84.1504 100.418 84.2485 99.7302 84.2485 99.0532V98.9877C84.0377 98.8348 83.8668 98.6528 83.7359 98.4417C83.6051 98.2306 83.5396 98.0741 83.5396 97.9722C83.5396 97.863 83.5869 97.7648 83.6814 97.6774C83.7759 97.5901 83.8777 97.5464 83.9868 97.5464C84.1249 97.5464 84.2485 97.6701 84.3576 97.9176C84.4667 98.1578 84.5394 98.4345 84.5757 98.7475Z" fill="black"/>
<path d="M90.356 98.1033C90.356 98.6419 90.5087 98.9295 90.814 98.9659C90.7922 99.0678 90.7086 99.1187 90.5632 99.1187C90.2651 99.1187 90.0542 98.9368 89.9306 98.5728C89.8725 98.4054 89.8434 98.2015 89.8434 97.9613C89.8434 97.7138 89.9379 97.419 90.1269 97.0769C90.5559 96.2835 91.3339 95.7739 92.4609 95.5483C92.8462 95.4755 93.257 95.4391 93.6933 95.4391C94.1368 95.4391 94.5149 95.3954 94.8275 95.3081C95.1402 95.2207 95.3546 95.1224 95.471 95.0132C95.7764 94.7293 96.0017 94.5874 96.1472 94.5874C96.2926 94.5874 96.3653 94.6311 96.3653 94.7184C96.3653 94.7403 96.3653 94.7621 96.3653 94.7839C96.3144 94.9878 96.0963 95.1807 95.7109 95.3626C95.4782 95.4646 95.2165 95.5446 94.9257 95.6029C94.6857 95.7048 94.4858 95.985 94.3258 96.4436C94.1659 96.8949 93.9986 97.5501 93.8241 98.409C94.2022 98.3726 94.5149 98.3544 94.7621 98.3544C94.8275 98.3544 94.8566 98.3945 94.8493 98.4745C94.8202 98.5619 94.7439 98.6092 94.6203 98.6165C94.4967 98.6165 94.2095 98.6529 93.7587 98.7257C93.417 100.414 93.1189 101.608 92.8644 102.307C92.2246 104.076 91.3121 104.96 90.1269 104.96C89.2763 104.96 88.7455 104.571 88.5346 103.792C88.4547 103.523 88.4147 103.253 88.4147 102.984C88.4147 102.474 88.5492 101.965 88.8182 101.455C89.2254 100.676 89.7598 100.287 90.4214 100.287C90.5159 100.287 90.5923 100.309 90.6504 100.353C90.7159 100.396 90.7595 100.462 90.7813 100.549C90.156 100.549 89.6398 100.873 89.2326 101.521C88.9127 102.023 88.7528 102.544 88.7528 103.082C88.7528 103.868 89.0291 104.349 89.5816 104.524C89.7125 104.56 89.8834 104.578 90.0942 104.578C90.3051 104.578 90.5268 104.516 90.7595 104.393C90.9994 104.276 91.2139 104.058 91.403 103.737C91.5993 103.424 91.7592 103.162 91.8828 102.951C92.0064 102.733 92.1482 102.347 92.3082 101.794C92.4972 101.117 92.6572 100.491 92.7881 99.9158C92.9189 99.3335 92.9989 98.9841 93.028 98.8676C92.6208 98.9331 92.3118 98.9659 92.101 98.9659C91.8974 98.9659 91.7811 98.8749 91.752 98.6929C91.7447 98.5473 91.7847 98.4636 91.8719 98.4418C91.9083 98.4854 92.021 98.5073 92.21 98.5073C92.4063 98.5073 92.7117 98.4891 93.1261 98.4527C93.3079 97.7393 93.4824 97.1606 93.6496 96.7166C93.8169 96.2653 94.0132 95.9231 94.2386 95.6902C94.1222 95.6975 93.9405 95.7011 93.6933 95.7011C92.2973 95.7011 91.3194 96.1124 90.7595 96.935C90.4905 97.3208 90.356 97.7102 90.356 98.1033ZM95.1547 100.342C95.1547 100.378 95.122 100.396 95.0565 100.396C94.9911 100.396 94.9257 100.382 94.8602 100.353C94.8021 100.323 94.773 100.283 94.773 100.232C94.773 99.49 94.8566 98.8931 95.0238 98.4418C95.1911 97.9832 95.4128 97.7539 95.6891 97.7539C95.7618 97.7539 95.8236 97.7794 95.8745 97.8303C95.9254 97.8813 95.9509 97.9504 95.9509 98.0378C95.6237 98.3653 95.3874 98.853 95.2419 99.5009C95.1838 99.7702 95.1547 100.05 95.1547 100.342Z" fill="black"/>
<path d="M99.3334 100.56C99.0571 100.56 98.919 100.258 98.919 99.6538C98.919 99.3117 98.9844 98.9914 99.1153 98.693C98.6209 99.1224 98.0683 99.9232 97.4576 101.095C96.8468 102.26 96.5414 103.02 96.5414 103.377C96.5414 103.465 96.4833 103.508 96.3669 103.508C96.1561 103.508 96.0507 103.221 96.0507 102.646C96.0507 101.561 96.1597 100.578 96.3778 99.6975C96.596 98.8167 96.8614 98.3763 97.174 98.3763C97.3121 98.3763 97.3812 98.4564 97.3812 98.6165C97.0468 99.6793 96.8068 100.768 96.6614 101.881H96.7377C97.3267 100.52 97.9774 99.4573 98.69 98.693C99.0971 98.2562 99.4679 98.0378 99.8024 98.0378C99.8751 98.0378 99.9333 98.0597 99.9769 98.1034C100.028 98.147 100.053 98.2016 100.053 98.2671C100.002 98.3181 99.9405 98.3945 99.8678 98.4964C99.7951 98.5983 99.697 98.8422 99.5734 99.228C99.4498 99.6065 99.388 100.021 99.388 100.473C99.388 100.531 99.3698 100.56 99.3334 100.56Z" fill="black"/>
<path d="M102.903 98.3982C103.456 98.3982 103.732 98.7221 103.732 99.37C103.732 99.7412 103.608 100.131 103.361 100.538C102.939 101.215 102.38 101.554 101.682 101.554C101.572 101.554 101.482 101.536 101.409 101.499C101.336 101.463 101.282 101.408 101.245 101.335C101.762 101.335 102.234 101.037 102.663 100.44C103.012 99.9596 103.187 99.5192 103.187 99.1188C103.187 98.8204 103.067 98.6712 102.827 98.6712C102.347 98.6712 101.9 99.0461 101.485 99.7958C101.042 100.611 100.82 101.448 100.82 102.307C100.82 103.035 101.027 103.472 101.442 103.617C101.522 103.647 101.623 103.661 101.747 103.661C101.871 103.661 102.001 103.632 102.14 103.574C102.278 103.508 102.394 103.432 102.489 103.344C102.678 103.17 102.834 102.977 102.958 102.766C102.987 102.708 103.041 102.678 103.121 102.678C103.252 102.678 103.314 102.7 103.307 102.744C103.285 102.824 103.201 102.959 103.056 103.148C102.918 103.337 102.787 103.49 102.663 103.606C102.547 103.716 102.39 103.814 102.194 103.901C102.005 103.996 101.812 104.043 101.616 104.043C100.845 104.043 100.355 103.679 100.144 102.951C100.078 102.704 100.046 102.449 100.046 102.187C100.046 101.699 100.158 101.168 100.384 100.593C100.74 99.7194 101.231 99.0897 101.856 98.7039C102.198 98.5001 102.547 98.3982 102.903 98.3982Z" fill="black"/>
<path d="M107.137 98.3982C107.689 98.3982 107.965 98.7221 107.965 99.37C107.965 99.7412 107.842 100.131 107.595 100.538C107.173 101.215 106.613 101.554 105.915 101.554C105.806 101.554 105.715 101.536 105.642 101.499C105.57 101.463 105.515 101.408 105.479 101.335C105.995 101.335 106.468 101.037 106.897 100.44C107.246 99.9596 107.42 99.5192 107.42 99.1188C107.42 98.8204 107.3 98.6712 107.06 98.6712C106.58 98.6712 106.133 99.0461 105.719 99.7958C105.275 100.611 105.054 101.448 105.054 102.307C105.054 103.035 105.261 103.472 105.675 103.617C105.755 103.647 105.857 103.661 105.981 103.661C106.104 103.661 106.235 103.632 106.373 103.574C106.511 103.508 106.628 103.432 106.722 103.344C106.911 103.17 107.068 102.977 107.191 102.766C107.22 102.708 107.275 102.678 107.355 102.678C107.486 102.678 107.547 102.7 107.54 102.744C107.518 102.824 107.435 102.959 107.289 103.148C107.151 103.337 107.02 103.49 106.897 103.606C106.78 103.716 106.624 103.814 106.428 103.901C106.239 103.996 106.046 104.043 105.85 104.043C105.079 104.043 104.588 103.679 104.377 102.951C104.312 102.704 104.279 102.449 104.279 102.187C104.279 101.699 104.392 101.168 104.617 100.593C104.974 99.7194 105.464 99.0897 106.09 98.7039C106.431 98.5001 106.78 98.3982 107.137 98.3982Z" fill="black"/>
<path d="M110.116 105.288C109.694 105.288 109.382 105.066 109.178 104.622C108.982 104.178 108.884 103.512 108.884 102.624C108.884 101.736 109.014 100.684 109.276 99.468C109.538 98.2524 109.843 97.2442 110.192 96.4435C110.549 95.6428 110.858 95.2424 111.119 95.2424C111.243 95.2424 111.305 95.3152 111.305 95.4608C111.152 95.8102 110.959 96.338 110.727 97.044C110.494 97.7428 110.298 98.3907 110.138 98.9876C109.985 99.5845 109.843 100.283 109.712 101.084C109.589 101.885 109.527 102.573 109.527 103.148C109.527 103.715 109.582 104.152 109.691 104.458C109.807 104.771 109.963 104.927 110.16 104.927C110.327 104.927 110.487 104.847 110.64 104.687C110.792 104.534 110.901 104.382 110.967 104.229C111.003 104.149 111.068 104.127 111.163 104.163C111.199 104.178 111.207 104.207 111.185 104.25C111.17 104.301 111.141 104.363 111.098 104.436C111.061 104.509 110.992 104.622 110.89 104.775C110.672 105.117 110.414 105.288 110.116 105.288Z" fill="black"/>
<path d="M111.694 107.111C112.348 107.111 112.861 106.802 113.232 106.183C113.552 105.637 113.799 104.957 113.973 104.142C112.657 104.171 111.647 104.673 110.941 105.648C110.898 105.714 110.829 105.725 110.734 105.681C110.683 105.652 110.669 105.616 110.69 105.572C111.003 105.099 111.439 104.695 111.999 104.36C112.559 104.032 113.239 103.854 114.039 103.825C114.119 103.461 114.195 103.035 114.268 102.547C114.34 102.06 114.424 101.587 114.519 101.128H114.42C113.475 102.809 112.755 103.65 112.261 103.65C111.708 103.65 111.432 103.224 111.432 102.373C111.432 101.521 111.614 100.666 111.977 99.8067C112.341 98.9405 112.672 98.4746 112.97 98.4091L113.035 98.3982C113.159 98.3982 113.221 98.4783 113.221 98.6384C113.141 98.835 113.039 99.0934 112.915 99.4137C112.792 99.7267 112.628 100.247 112.425 100.975C112.221 101.696 112.119 102.26 112.119 102.667C112.119 103.068 112.206 103.268 112.381 103.268C112.584 103.268 112.912 102.915 113.362 102.209C114.024 101.175 114.599 100.127 115.086 99.0642C115.297 98.6202 115.522 98.3982 115.762 98.3982C115.915 98.3982 115.991 98.4819 115.991 98.6493C115.853 98.9041 115.685 99.3809 115.489 100.08C115.293 100.779 115.133 101.485 115.009 102.198C114.886 102.904 114.78 103.457 114.693 103.858C115.246 103.952 115.566 104.192 115.653 104.578C115.667 104.644 115.675 104.731 115.675 104.84C115.675 104.957 115.631 105.055 115.544 105.135C115.456 105.222 115.38 105.266 115.315 105.266C115.329 105.215 115.333 105.124 115.326 104.993C115.318 104.869 115.293 104.764 115.249 104.677C115.213 104.589 115.14 104.498 115.031 104.404C114.922 104.309 114.78 104.24 114.606 104.196C114.046 106.307 113.075 107.363 111.694 107.363C111.098 107.363 110.701 107.151 110.505 106.729C110.498 106.707 110.494 106.689 110.494 106.675C110.494 106.631 110.534 106.602 110.614 106.587C110.687 106.58 110.741 106.606 110.778 106.664C110.909 106.962 111.214 107.111 111.694 107.111Z" fill="black"/>
<path d="M117.298 103.77C117.145 103.77 117.069 103.628 117.069 103.344C117.069 103.17 117.116 102.984 117.211 102.787C117.305 102.591 117.44 102.493 117.614 102.493C117.76 102.493 117.833 102.576 117.833 102.744C117.833 102.911 117.698 103.191 117.429 103.585L117.298 103.77Z" fill="black"/>
<path d="M52.7987 86.6558C52.7642 85.2407 52.747 84.4469 52.747 83.0145C52.747 81.5822 52.747 80.7365 52.7987 79.2869C52.8332 77.8546 53.0745 77.8028 54.2811 77.7165C54.3845 77.613 54.3845 77.4231 54.2811 77.3196C53.6433 77.3541 52.5746 77.4059 52.0575 77.4059C51.5404 77.4059 50.3682 77.3541 49.8166 77.3196C49.7132 77.4231 49.7132 77.613 49.8166 77.7165C51.0233 77.82 51.2991 77.8546 51.3335 79.2869C51.368 80.7193 51.3852 81.5649 51.3852 82.9973C51.3852 84.4296 51.368 85.2235 51.3335 86.6558C51.2991 88.0882 51.0233 88.1745 49.8166 88.2262C49.7132 88.3298 49.7132 88.5196 49.8166 88.6232C50.4889 88.5887 51.5404 88.5369 52.0575 88.5369C52.5746 88.5369 53.5744 88.5714 54.2811 88.6232C54.3845 88.5196 54.3845 88.3298 54.2811 88.2262C53.0745 88.1745 52.8332 88.0882 52.7987 86.6558Z" fill="black"/>
<path d="M64.661 79.4767L64.6782 85.4651C64.6782 85.793 64.592 85.9828 64.4714 85.9828C64.3335 85.9828 64.1439 85.6722 63.644 85.0336L57.7316 77.4059L55.5079 77.3714C55.4045 77.4749 55.4045 77.6647 55.5079 77.7683C56.3353 77.82 56.7663 78.3723 56.9559 79.0453L56.9386 86.466C56.9386 88.0019 56.6456 88.1054 55.439 88.2262C55.3356 88.3298 55.3356 88.5196 55.439 88.6232C56.2836 88.6059 56.5767 88.5369 57.3006 88.5369C58.0246 88.5369 58.2832 88.6059 59.145 88.6232C59.2484 88.5196 59.2484 88.3298 59.145 88.2262C57.9384 88.1054 57.6454 88.0364 57.6454 86.466L57.6281 80.9609C57.6281 80.3741 57.7143 80.1153 57.8522 80.1153C57.9556 80.1153 58.1453 80.3051 58.4383 80.6848L64.4541 88.2953C64.6437 88.5541 64.8678 88.7095 65.1436 88.7095C65.3849 88.7095 65.3505 88.5024 65.3505 88.1745L65.3677 79.4767C65.3677 77.9408 65.6607 77.8373 66.8674 77.7165C66.9708 77.613 66.9708 77.4231 66.8674 77.3196C66.0227 77.3368 65.7297 77.4059 65.0057 77.4059C64.2818 77.4059 64.0232 77.3368 63.1613 77.3196C63.0579 77.4231 63.0579 77.613 63.1613 77.7165C64.3679 77.8373 64.661 77.9063 64.661 79.4767Z" fill="black"/>
<path d="M70.8441 86.6558C70.8096 85.2752 70.7923 84.4814 70.7923 83.1181C71.3957 83.1353 71.999 83.4114 72.3609 83.8601L75.0672 87.2771C75.412 87.7258 75.6533 88.2435 75.6878 88.5196C75.6878 88.5714 75.705 88.6232 75.7739 88.6232C76.1187 88.6059 76.0842 88.5369 76.6013 88.5369C77.2736 88.5369 77.7045 88.6059 78.5147 88.6232C78.6181 88.5196 78.6181 88.3298 78.5147 88.2262C78.2044 88.1745 77.4115 88.0019 76.8254 87.2771L73.0504 82.7902C72.9125 82.6348 72.8264 82.4968 72.8264 82.3587C72.8264 82.2379 72.8436 82.1171 73.4297 81.5131L75.9636 78.9073C76.7565 78.0616 77.6183 77.8028 78.3078 77.7165C78.4113 77.613 78.4113 77.4231 78.3078 77.3196C77.4977 77.3368 77.1874 77.4059 76.4979 77.4059C75.8084 77.4059 75.2741 77.3368 74.4639 77.3196C74.3605 77.4231 74.3605 77.613 74.4639 77.7165C75.0844 77.7683 75.8257 78.0616 75.1189 78.8382L72.3609 81.8755C71.999 82.2724 71.4301 82.5831 70.7923 82.6348C70.7923 81.4268 70.8096 80.5985 70.8441 79.2869C70.8785 77.8546 71.1371 77.7683 72.3437 77.7165C72.4471 77.613 72.4471 77.4231 72.3437 77.3196C71.4991 77.3368 70.9647 77.4059 70.0856 77.4059C69.2237 77.4059 68.7411 77.3368 67.8792 77.3196C67.7758 77.4231 67.7758 77.613 67.8792 77.7165C69.0858 77.7683 69.3272 77.8546 69.3616 79.2869C69.3961 80.7193 69.4306 81.5649 69.4306 82.9973C69.4306 84.4296 69.3961 85.2235 69.3616 86.6558C69.3272 88.0882 69.0858 88.1745 67.8792 88.2262C67.7758 88.3298 67.7758 88.5196 67.8792 88.6232C68.7239 88.6059 69.241 88.5369 70.1201 88.5369C70.982 88.5369 71.4818 88.6059 72.3437 88.6232C72.4471 88.5196 72.4471 88.3298 72.3437 88.2262C71.1371 88.1745 70.8785 88.0882 70.8441 86.6558Z" fill="black"/>
<path d="M85.4697 77.6474C84.4699 77.5093 84.5216 77.1814 82.8324 77.1814C81.0914 77.1814 79.5573 78.3376 79.5573 80.1669C79.5573 81.7891 80.6949 82.5657 82.0395 83.1352C83.1254 83.6184 84.9181 83.9981 84.9181 85.9654C84.9181 87.3633 84.0907 88.2606 82.729 88.2606C81.1086 88.2606 79.902 87.3633 79.5228 85.6375C79.316 85.5685 79.2987 85.603 79.1436 85.6893C79.2125 87.0181 79.2815 87.4668 79.4883 88.3124C80.5743 88.3124 81.0397 88.7093 82.5738 88.7093C83.3667 88.7093 84.1079 88.5195 84.7112 88.1571C85.6938 87.5358 86.3316 86.4659 86.3316 85.3614C86.3316 83.722 85.2111 82.9454 83.9528 82.4104C83.1254 82.0652 80.7467 81.3922 80.7467 79.701C80.7467 78.7346 81.6602 77.5956 82.66 77.5956C84.3493 77.5956 85.056 78.8381 85.4007 79.9771C85.5904 79.9771 85.6248 79.9944 85.78 79.8736C85.7283 79.0452 85.6593 78.562 85.4697 77.6474Z" fill="black"/>
<path d="M93.0778 88.7093C94.7498 88.7093 96.4563 87.9155 97.6285 86.3796C97.5423 86.2243 97.4216 86.1207 97.232 86.1207C96.0082 87.4668 94.836 88.0018 93.2329 88.0018C90.5612 88.0018 89.2166 85.2924 89.2166 82.7728C89.2166 79.9598 91.0093 77.6474 93.1812 77.6474C95.56 77.6474 96.577 79.235 97.0252 80.7192C97.1803 80.7364 97.2837 80.7192 97.4216 80.6329C97.3354 79.7355 97.2148 78.9071 97.0424 77.958C96.1633 77.8717 95.3876 77.1814 93.2674 77.1814C89.8544 77.1814 87.6653 79.8563 87.6653 83.1007C87.6653 86.1552 89.3718 88.7093 93.0778 88.7093Z" fill="black"/>
<path d="M102.72 83.7392C102.341 83.7392 102.22 83.6011 102.289 83.4286L104.099 78.9589H104.151L105.806 83.7392H102.72ZM100.772 87.346L101.807 84.6711C101.893 84.4468 101.996 84.2914 102.41 84.2914H106.013L107.099 87.4668C107.34 88.1744 106.65 88.1744 105.823 88.2261C105.72 88.3297 105.72 88.5195 105.823 88.623C106.461 88.6058 107.409 88.5368 108.081 88.5368C108.788 88.5368 109.529 88.6058 110.167 88.623C110.27 88.5195 110.27 88.3297 110.167 88.2261C109.495 88.1744 108.926 88.1053 108.615 87.2252L105.013 77.1814C104.754 77.3367 104.341 77.5265 104.116 77.5265L100.117 86.9491C99.6692 88.0018 99.1521 88.1744 98.3937 88.2261C98.2902 88.3297 98.2902 88.5195 98.3937 88.623C99.0315 88.6058 99.4279 88.5368 100.1 88.5368C100.807 88.5368 101.324 88.6058 101.962 88.623C102.065 88.5195 102.065 88.3297 101.962 88.2261C101.307 88.1916 100.497 88.0708 100.772 87.346Z" fill="black"/>
<path d="M113.515 83.4286C113.894 83.5494 114.394 83.5839 114.98 83.5839C118.117 83.5839 119.013 81.6165 119.013 80.1497C119.013 79.1315 118.376 77.2332 115.187 77.2332C114.738 77.2332 113.532 77.4057 112.842 77.4057C111.98 77.4057 111.498 77.3367 110.636 77.3194C110.533 77.423 110.533 77.6128 110.636 77.7164C111.843 77.7681 112.101 77.8544 112.118 79.2868C112.136 80.7192 112.153 81.5648 112.153 82.9971C112.153 84.4295 112.153 85.2233 112.118 86.6557C112.084 88.1053 111.843 88.1743 110.636 88.2261C110.533 88.3297 110.533 88.5195 110.636 88.623C111.481 88.6058 111.998 88.5367 112.877 88.5367C113.842 88.5367 114.463 88.6058 115.325 88.623C115.428 88.5195 115.428 88.3297 115.325 88.2261C114.135 88.1571 113.566 88.0708 113.549 87.0699C113.532 85.7756 113.515 84.6711 113.515 83.4286ZM113.549 78.4757C113.566 77.9752 113.842 77.6473 115.083 77.6473C116.273 77.6473 117.496 78.2686 117.496 80.4603C117.496 82.3241 116.548 83.1697 114.876 83.1697C114.463 83.1697 113.739 83.1352 113.515 83.0834V82.9971C113.515 81.5648 113.532 79.9081 113.549 78.4757Z" fill="black"/>
<path d="M125.16 82.3758L123.143 82.3931C123.143 82.3931 123.126 80.0461 123.178 78.631C123.195 78.2168 123.402 77.8717 123.816 77.8717H126.505C127.797 77.8717 128.056 78.7863 128.435 79.9771C128.642 80.0116 128.676 79.9771 128.849 79.8908C128.763 79.1832 128.504 77.4747 128.47 77.3367C128.47 77.3022 128.452 77.2849 128.401 77.2849C128.108 77.3367 127.953 77.4057 127.539 77.4057H122.505C121.988 77.4057 121.127 77.3367 120.265 77.3194C120.161 77.423 120.161 77.6128 120.265 77.7163C121.471 77.7681 121.695 77.8544 121.747 79.2868C121.782 80.7019 121.782 81.5648 121.782 82.9971C121.782 84.4295 121.782 85.2406 121.747 86.6557C121.695 88.088 121.471 88.1743 120.265 88.2261C120.161 88.3296 120.161 88.5195 120.265 88.623C121.109 88.6058 122.023 88.5367 122.54 88.5367H126.367C127.194 88.5367 128.573 88.623 128.573 88.623C128.814 87.7601 129.056 86.5694 129.194 85.6893C129.021 85.5857 129.004 85.5512 128.78 85.603C128.435 86.8455 127.815 88.088 126.505 88.088H123.816C123.436 88.088 123.195 87.8119 123.178 87.346C123.126 85.8964 123.143 82.8763 123.143 82.8763L125.16 82.8936C126.625 82.9108 126.694 83.2732 126.746 84.0498C126.849 84.1534 127.022 84.1534 127.125 84.0498C127.108 83.4458 127.056 83.2387 127.056 82.7037C127.056 82.1342 127.108 81.7373 127.125 81.2196C127.022 81.1161 126.849 81.1161 126.746 81.2196C126.694 82.1688 126.625 82.3758 125.16 82.3758Z" fill="black"/>
<path d="M85.0076 24.9385L67.0282 43.3582C60.9534 50.8898 71.1623 50.0135 75.5387 52.1829C77.1086 53.7894 69.5215 54.9752 71.0914 56.5831C72.6613 58.1897 80.5843 59.6783 82.1569 61.2849C83.7268 62.8914 78.9435 64.5958 80.5134 66.2023C82.0833 67.8089 85.7142 66.2867 86.3941 69.9956C86.8786 72.6459 92.9373 71.1345 95.9005 68.9639C97.4703 67.356 92.8972 67.5074 94.4671 65.9008C98.3711 61.9039 102.006 64.4484 103.342 60.4434C104.002 58.4644 97.5948 57.3924 99.1674 55.7859C103.684 53.1449 119.296 51.4258 111.888 44.0094L93.2519 24.9385C90.9726 22.7477 87.169 22.7236 85.0076 24.9385ZM105.66 60.4434C105.66 61.3572 112.385 61.9562 112.385 60.2277C111.427 57.4514 106.455 57.639 105.66 60.4434ZM75.3648 65.2992C76.9574 66.678 79.4173 64.9562 80.1547 63.0321C78.6116 60.9794 72.8353 63.1058 75.3648 65.2992ZM104.817 62.3206C102.764 64.1643 105.047 66.0348 107.07 64.8437C107.521 64.3854 107.058 62.7789 104.817 62.3206Z" fill="black"/>
<path d="M80.7048 53.1797C81.1853 53.4785 88.4525 54.9564 90.2285 55.2512C90.8442 55.3812 90.4079 56.0163 89.5593 56.445C87.6455 56.9542 78.3627 53.1797 80.7048 53.1797Z" fill="white"/>
<path d="M92.1651 26.2302L99.2785 33.463C99.953 34.1531 99.9436 35.4903 99.5662 35.8749L96.0343 33.0463L95.3397 37.2349L92.3886 35.6752L87.6629 38.6646L86.0984 32.363L83.5595 36.7606H79.6783C78.0963 36.7606 77.9103 34.7507 79.3477 33.3116C81.8584 30.5983 84.7399 27.8327 86.3058 26.2302C87.8797 24.6196 90.622 24.6652 92.1651 26.2302Z" fill="white"/>
</svg>
