<svg width="179" height="128" viewBox="0 0 179 128" fill="none" xmlns="http://www.w3.org/2000/svg">
<rect width="179" height="128" rx="2" fill="#F3F3F3"/>
<path d="M30.1204 66.015C30.2984 62.8388 31.8538 60.0406 34.2002 58.0569C36.5013 56.1086 39.5985 54.9177 42.9779 54.9177C46.354 54.9177 49.4512 56.1086 51.754 58.0569C54.0987 60.0406 55.6541 62.8388 55.8338 66.0116C56.0118 69.2751 54.7001 72.3069 52.399 74.5542C50.0525 76.8402 46.7151 78.2746 42.9779 78.2746C39.2408 78.2746 35.8966 76.8402 33.5519 74.5542C31.2491 72.3069 29.9407 69.2752 30.1204 66.015Z" fill="white"/>
<path d="M36.3811 66.3C36.4724 64.6703 37.2705 63.2345 38.4745 62.2167C39.6552 61.217 41.2444 60.606 42.9784 60.606C44.7106 60.606 46.2999 61.217 47.4814 62.2167C48.6845 63.2345 49.4826 64.6703 49.5748 66.2983C49.6661 67.9728 48.9931 69.5284 47.8124 70.6815C46.6084 71.8545 44.8959 72.5905 42.9784 72.5905C41.0608 72.5905 39.3449 71.8545 38.1418 70.6815C36.9602 69.5284 36.2889 67.9728 36.3811 66.3Z" fill="#265787"/>
<path d="M25.8755 69.5931C25.8867 70.2309 26.0901 71.4702 26.3952 72.438C27.0364 74.4866 28.124 76.3817 29.6374 78.052C31.1904 79.7687 33.1028 81.1476 35.3116 82.1267C37.6334 83.1548 40.1491 83.6788 42.7621 83.6745C45.3709 83.6711 47.8866 83.1367 50.2083 82.1008C52.4172 81.1123 54.3278 79.7274 55.8783 78.0097C57.3908 76.3326 58.4767 74.434 59.1196 72.3855C59.4428 71.3504 59.647 70.2998 59.7289 69.2458C59.8091 68.2073 59.7755 67.1671 59.6281 66.1277C59.3402 64.1024 58.6396 62.2021 57.5605 60.4698C56.5738 58.8781 55.3017 57.4845 53.7892 56.3115L53.7927 56.3089L38.5288 44.589C38.515 44.5786 38.5039 44.5674 38.4892 44.558C37.4878 43.7892 35.8037 43.7918 34.7023 44.5623C33.5889 45.3414 33.4613 46.6298 34.4524 47.4425L34.4481 47.4468L40.8144 52.6238L21.4104 52.6445H21.3845C19.7807 52.6462 18.2389 53.6985 17.9338 55.0283C17.6201 56.3831 18.7094 57.5069 20.377 57.5129L20.3745 57.519L30.2096 57.5L12.6594 70.9712C12.637 70.9876 12.6128 71.0048 12.5922 71.0212C10.9366 72.2889 10.4014 74.397 11.4442 75.7311C12.5025 77.0876 14.7528 77.0902 16.4256 75.7388L26.0039 67.8996C26.0039 67.8996 25.8643 68.958 25.8755 69.5931ZM50.4884 73.137C48.5148 75.1476 45.7518 76.2878 42.7621 76.2938C39.7681 76.299 37.0051 75.1692 35.0315 73.162C34.0672 72.1838 33.3587 71.0583 32.9218 69.8595C32.4935 68.6813 32.3271 67.4308 32.4375 66.1691C32.5417 64.9358 32.9089 63.7594 33.4949 62.6951C34.0706 61.6488 34.8635 60.7034 35.8425 59.9036C37.761 58.3403 40.2034 57.494 42.7578 57.4905C45.3149 57.4871 47.7556 58.3256 49.6757 59.8838C50.653 60.6801 51.445 61.6221 52.0207 62.6666C52.6094 63.7301 52.9739 64.9022 53.0825 66.1389C53.1911 67.3989 53.0248 68.6477 52.5964 69.8267C52.1586 71.029 51.4528 72.1545 50.4884 73.137Z" fill="#EA7600"/>
<path d="M140.953 66.2733C141.1 64.629 142.371 63.5861 144.313 63.5861C146.257 63.5861 147.527 64.629 147.675 66.2733H140.953ZM147.476 70.3334C146.978 71.552 145.806 72.2734 144.215 72.2734C142.221 72.2734 140.879 71.0289 140.825 69.0631H152.285V68.4848C152.285 63.5603 149.394 60.793 144.215 60.793C139.185 60.793 136.144 63.5862 136.144 67.9668C136.144 72.3742 139.232 75.1631 144.215 75.1631C147.204 75.1631 149.523 74.1384 150.951 72.3371L147.476 70.3334Z" fill="#265787"/>
<path d="M90.1056 66.281C90.2573 64.6366 91.5285 63.5938 93.4719 63.5938C95.4128 63.5938 96.6831 64.6366 96.8322 66.281H90.1056ZM96.6331 70.3411C96.135 71.5631 94.9638 72.2845 93.3685 72.2845C91.3786 72.2845 90.0332 71.0366 89.9807 69.0699H101.438V68.495C101.438 63.568 98.5481 60.7998 93.3685 60.7998C88.3363 60.7998 85.301 63.5938 85.301 67.9745C85.301 72.3819 88.388 75.1707 93.3685 75.1707C96.3573 75.1707 98.6774 74.1495 100.109 72.3457L96.6331 70.3411Z" fill="#265787"/>
<path d="M84.2746 57.8154H80.1422V74.7219H84.2746V57.8154Z" fill="#265787"/>
<path d="M102.466 62.3073H106.622V63.314C108.093 61.7437 109.86 60.95 111.852 60.95C114.147 60.95 115.885 61.7437 116.782 63.095C117.531 64.2111 117.58 65.5581 117.58 67.3283V74.7219H113.418V68.2255C113.418 65.5297 112.876 64.2852 110.509 64.2852C108.118 64.2852 106.622 65.7098 106.622 68.1014V74.7219H102.466V62.3073Z" fill="#265787"/>
<path d="M130.963 68.1761C130.963 70.4901 129.417 72.0078 127.025 72.0078C124.63 72.0078 123.084 70.5419 123.084 68.2029C123.084 65.8294 124.61 64.3643 127.025 64.3643C129.417 64.3643 130.963 65.8552 130.963 68.1761ZM130.963 62.8699C129.913 61.7435 128.392 61.1255 126.279 61.1255C121.72 61.1255 118.607 63.9368 118.607 68.1503C118.607 72.281 121.698 75.1707 126.204 75.1707C128.27 75.1707 129.787 74.6485 130.963 73.4772V74.7217H135.121V56.7432L130.963 57.8153V62.8699Z" fill="#265787"/>
<path d="M70.6965 64.3643C73.113 64.3643 74.6324 65.8294 74.6324 68.2029C74.6324 70.5419 73.0889 72.0078 70.6965 72.0078C68.3058 72.0078 66.7614 70.4901 66.7614 68.1761C66.7614 65.8552 68.3058 64.3643 70.6965 64.3643ZM66.7614 57.8153L62.6013 56.7432V74.7217H66.7614V73.4772C67.9317 74.6485 69.4511 75.1707 71.5187 75.1707C76.0269 75.1707 79.1139 72.281 79.1139 68.1503C79.1139 63.9368 76.0001 61.1255 71.4437 61.1255C69.3262 61.1255 67.8068 61.7435 66.7614 62.8699V57.8153Z" fill="#265787"/>
<path d="M153.31 74.7219V62.3073H157.469V63.0743C158.714 61.5747 160.032 60.8284 161.53 60.8284C161.828 60.8284 162.202 60.8766 162.699 60.9258V64.4653C162.298 64.4127 161.852 64.4127 161.378 64.4127C158.96 64.4127 157.469 66.0071 157.469 68.7184V74.7219H153.31Z" fill="#265787"/>
<path d="M166.252 60.0958H166.4C166.506 60.0958 166.586 60.0707 166.64 60.0206C166.695 59.9705 166.722 59.8989 166.722 59.8058C166.722 59.7027 166.695 59.6311 166.643 59.591C166.591 59.5495 166.509 59.5287 166.395 59.5287H166.252V60.0958ZM167.13 59.7972C167.13 60.0421 167.021 60.2089 166.801 60.2977L167.311 61.1505H166.857L166.445 60.4072H166.252V61.1505H165.846V59.2108H166.408C166.658 59.2108 166.84 59.2595 166.956 59.3568C167.072 59.4542 167.13 59.601 167.13 59.7972ZM164.86 60.1795C164.86 59.8931 164.931 59.6246 165.074 59.374C165.218 59.1234 165.415 58.9258 165.665 58.7812C165.916 58.6365 166.186 58.5642 166.475 58.5642C166.761 58.5642 167.03 58.6358 167.28 58.779C167.531 58.9222 167.729 59.1191 167.873 59.3697C168.018 59.6203 168.09 59.8903 168.09 60.1795C168.09 60.4617 168.021 60.7266 167.882 60.9743C167.743 61.2221 167.548 61.4204 167.298 61.5693C167.047 61.7183 166.773 61.7927 166.475 61.7927C166.179 61.7927 165.905 61.719 165.654 61.5715C165.404 61.4226 165.208 61.2242 165.068 60.9765C164.929 60.7287 164.86 60.4631 164.86 60.1795ZM165.124 60.1795C165.124 60.423 165.184 60.6493 165.304 60.8583C165.426 61.066 165.591 61.2299 165.8 61.3502C166.01 61.4705 166.234 61.5307 166.475 61.5307C166.718 61.5307 166.945 61.4698 167.154 61.3481C167.363 61.2249 167.527 61.0603 167.646 60.854C167.766 60.6464 167.826 60.4216 167.826 60.1795C167.826 59.939 167.765 59.7141 167.644 59.5051C167.523 59.2945 167.358 59.1291 167.147 59.0089C166.938 58.8886 166.714 58.8284 166.475 58.8284C166.234 58.8284 166.01 58.8878 165.803 59.0067C165.596 59.1256 165.432 59.2895 165.309 59.4986C165.185 59.7077 165.124 59.9347 165.124 60.1795Z" fill="#236192"/>
</svg>
